<svg width="104" height="130" viewBox="0 0 104 130" fill="none" xmlns="http://www.w3.org/2000/svg">
<path fill-rule="evenodd" clip-rule="evenodd" d="M51.3855 0.0432001C50.6142 0.159467 49.8984 0.508261 49.3319 1.04375C40.6451 9.22075 29.2265 13.7733 17.3553 13.7968C13.1287 13.7851 8.92573 13.2165 4.85499 12.072C3.70395 11.7499 2.46967 11.9845 1.51696 12.7056C0.564323 13.4267 0.0031952 14.5509 0 15.7457V78.0542C0 93.684 13.23 106.254 25.6506 115.224C38.0712 124.194 50.435 129.672 50.435 129.672H50.4361C51.4218 130.109 52.5483 130.109 53.5352 129.672C53.5352 129.672 65.899 124.193 78.3196 115.224C90.7402 106.255 104 93.6848 104 78.0542V15.7457C103.997 14.551 103.436 13.4267 102.483 12.7056C101.53 11.9845 100.296 11.7499 99.145 12.072C95.0743 13.2176 90.8711 13.7861 86.6447 13.7968C74.7449 13.7957 63.2877 9.24096 54.5807 1.04375C53.7262 0.236286 52.5474 -0.132792 51.3857 0.0432001H51.3855ZM51.9829 31.6043C68.9349 31.6043 82.7797 45.4092 82.7797 62.3599C82.7797 79.3106 68.9363 93.1537 51.9829 93.1537C35.0308 93.1537 21.2243 79.3117 21.2243 62.3599C21.2243 45.4082 35.0305 31.6043 51.9829 31.6043ZM51.9829 39.2502C39.1635 39.2502 28.8712 49.5416 28.8712 62.3596C28.8712 75.1777 39.1635 85.5065 51.9829 85.5065C64.8022 85.5065 75.132 75.178 75.132 62.3596C75.132 49.5416 64.8025 39.2502 51.9829 39.2502ZM64.2817 49.2183H64.2806C65.1938 49.2716 66.0578 49.6503 66.715 50.286C67.4489 50.9911 67.8703 51.9607 67.8874 52.9772C67.9044 53.9948 67.5151 54.9772 66.8046 55.7068L49.8386 73.1714C48.3868 74.6935 45.9779 74.7565 44.4472 73.3133L36.4059 65.7196C35.6667 65.0209 35.2368 64.0577 35.2112 63.0422C35.1845 62.0267 35.5632 61.0422 36.263 60.3061C37.716 58.7829 40.1248 58.7199 41.6555 60.1642L46.9648 65.1594L61.332 50.3679H61.3309C62.1022 49.5765 63.1775 49.1572 64.2806 49.218L64.2817 49.2183Z" fill="url(#paint0_linear_121_494)"/>
<path fill-rule="evenodd" clip-rule="evenodd" d="M51.3855 0.0432001C50.6142 0.159467 49.8984 0.508261 49.3319 1.04375C40.6451 9.22075 29.2265 13.7733 17.3553 13.7968C13.1287 13.7851 8.92573 13.2165 4.85499 12.072C3.70395 11.7499 2.46967 11.9845 1.51696 12.7056C0.564323 13.4267 0.0031952 14.5509 0 15.7457V78.0542C0 93.684 13.23 106.254 25.6506 115.224C38.0712 124.194 50.435 129.672 50.435 129.672H50.4361C51.4218 130.109 52.5483 130.109 53.5352 129.672C53.5352 129.672 65.899 124.193 78.3196 115.224C90.7402 106.255 104 93.6848 104 78.0542V15.7457C103.997 14.551 103.436 13.4267 102.483 12.7056C101.53 11.9845 100.296 11.7499 99.145 12.072C95.0743 13.2176 90.8711 13.7861 86.6447 13.7968C74.7449 13.7957 63.2877 9.24096 54.5807 1.04375C53.7262 0.236286 52.5474 -0.132792 51.3857 0.0432001H51.3855ZM51.9829 31.6043C68.9349 31.6043 82.7797 45.4092 82.7797 62.3599C82.7797 79.3106 68.9363 93.1537 51.9829 93.1537C35.0308 93.1537 21.2243 79.3117 21.2243 62.3599C21.2243 45.4082 35.0305 31.6043 51.9829 31.6043ZM51.9829 39.2502C39.1635 39.2502 28.8712 49.5416 28.8712 62.3596C28.8712 75.1777 39.1635 85.5065 51.9829 85.5065C64.8022 85.5065 75.132 75.178 75.132 62.3596C75.132 49.5416 64.8025 39.2502 51.9829 39.2502ZM64.2817 49.2183H64.2806C65.1938 49.2716 66.0578 49.6503 66.715 50.286C67.4489 50.9911 67.8703 51.9607 67.8874 52.9772C67.9044 53.9948 67.5151 54.9772 66.8046 55.7068L49.8386 73.1714C48.3868 74.6935 45.9779 74.7565 44.4472 73.3133L36.4059 65.7196C35.6667 65.0209 35.2368 64.0577 35.2112 63.0422C35.1845 62.0267 35.5632 61.0422 36.263 60.3061C37.716 58.7829 40.1248 58.7199 41.6555 60.1642L46.9648 65.1594L61.332 50.3679H61.3309C62.1022 49.5765 63.1775 49.1572 64.2806 49.218L64.2817 49.2183Z" fill="#152428"/>
<defs>
<linearGradient id="paint0_linear_121_494" x1="52" y1="0.00012207" x2="52" y2="130" gradientUnits="userSpaceOnUse">
<stop stop-color="#1169FF"/>
<stop offset="1" stop-color="#11C6FF"/>
</linearGradient>
</defs>
</svg>
