<svg width="1241" height="380" viewBox="0 0 1241 380" fill="none" xmlns="http://www.w3.org/2000/svg">
<g opacity="0.85">
<path d="M0 0.221442L48.9003 155.233H81.3523L114.249 51.5967L146.701 155.233H179.375L228.053 0.221442H195.601L163.149 103.415L130.475 0.221442H98.0229L65.1263 103.858L32.6743 0.221442H0Z" fill="#F1F6FD"/>
<path d="M273.479 103.636C273.479 83.7063 286.815 69.7552 306.598 69.7552C326.38 69.7552 340.606 83.7063 340.606 103.636V155.233H371.724V103.636C371.724 66.655 348.385 41.1888 315.044 41.1888C297.929 41.1888 283.259 49.1608 273.479 62.4475V0.221442H242.36V155.233H273.479V103.636Z" fill="#F1F6FD"/>
<path d="M469.631 198.858L525.421 44.5105H492.747L463.407 125.559H443.625L414.062 44.5105H381.165L421.619 155.233H452.515L436.734 198.858H469.631Z" fill="#F1F6FD"/>
<path d="M581.082 0.221442L629.982 155.233H662.434L695.331 51.5967L727.783 155.233H760.457L809.135 0.221442H776.683L744.231 103.415L711.557 0.221442H679.105L646.208 103.858L613.756 0.221442H581.082Z" fill="#F1F6FD"/>
<path d="M937.533 107.622C937.978 105.186 937.978 102.529 937.978 100.093C937.978 64.8835 909.527 41.1888 871.518 41.1888C833.064 41.1888 804.613 66.2121 804.613 100.093C804.613 133.531 833.287 158.555 871.518 158.555C901.969 158.555 925.753 143.939 934.199 121.352H902.636C896.857 129.324 886.188 134.196 872.852 134.196C854.181 134.196 839.955 123.566 836.621 107.622H937.533ZM836.621 92.1212C839.955 76.62 853.514 66.2121 871.518 66.2121C889.744 66.2121 902.859 76.3986 905.97 92.1212H836.621Z" fill="#F1F6FD"/>
<path d="M957.102 57.5758H983.108L994.222 0H961.77L957.102 57.5758Z" fill="#F1F6FD"/>
<path d="M1097.82 41.1888C1074.03 41.1888 1055.59 53.5897 1045.36 73.2984L1042.03 44.5105H1014.24V155.233H1045.36V123.788C1045.36 92.7855 1064.7 73.9627 1097.82 73.9627V41.1888Z" fill="#F1F6FD"/>
<path d="M1240.56 107.622C1241 105.186 1241 102.529 1241 100.093C1241 64.8835 1212.55 41.1888 1174.54 41.1888C1136.09 41.1888 1107.64 66.2121 1107.64 100.093C1107.64 133.531 1136.31 158.555 1174.54 158.555C1204.99 158.555 1228.78 143.939 1237.22 121.352H1205.66C1199.88 129.324 1189.21 134.196 1175.87 134.196C1157.2 134.196 1142.98 123.566 1139.64 107.622H1240.56ZM1139.64 92.1212C1142.98 76.62 1156.54 66.2121 1174.54 66.2121C1192.77 66.2121 1205.88 76.3986 1208.99 92.1212H1139.64Z" fill="#F1F6FD"/>
<path d="M225.321 376.678H304.006C339.125 376.678 365.131 359.406 365.131 333.496C365.131 316.445 353.129 303.601 333.791 297.179C348.461 290.093 358.019 277.471 358.019 262.191C358.019 237.611 336.236 221.667 304.006 221.667H225.321V376.678ZM328.234 267.063C328.234 277.692 317.12 285.443 304.006 285.443H256.439V248.24H304.006C318.009 248.24 328.234 255.769 328.234 267.063ZM333.791 330.618C333.791 342.576 322.01 349.883 304.006 349.883H256.439V311.13H304.006C322.677 311.13 333.791 317.995 333.791 330.618Z" fill="#F1F6FD"/>
<path d="M512.412 329.068C512.857 326.632 512.857 323.974 512.857 321.538C512.857 286.329 484.406 262.634 446.397 262.634C407.943 262.634 379.492 287.657 379.492 321.538C379.492 354.977 408.166 380 446.397 380C476.848 380 500.632 365.385 509.078 342.797H477.515C471.736 350.769 461.067 355.641 447.73 355.641C429.059 355.641 414.834 345.012 411.5 329.068H512.412ZM411.5 313.566C414.834 298.065 428.393 287.657 446.397 287.657C464.623 287.657 477.737 297.844 480.849 313.566H411.5Z" fill="#F1F6FD"/>
<path d="M581.104 294.522H613.111V265.956H581.104V241.154H568.656L527.313 282.121V294.522H549.985V324.86C549.985 359.627 571.99 380 613.111 380V351.212C591.773 351.212 581.104 342.576 581.104 324.86V294.522Z" fill="#F1F6FD"/>
<path d="M683.775 294.522H715.783V265.956H683.775V241.154H671.328L629.985 282.121V294.522H652.657V324.86C652.657 359.627 674.662 380 715.783 380V351.212C694.444 351.212 683.775 342.576 683.775 324.86V294.522Z" fill="#F1F6FD"/>
<path d="M864.708 329.068C865.153 326.632 865.153 323.974 865.153 321.538C865.153 286.329 836.702 262.634 798.693 262.634C760.239 262.634 731.788 287.657 731.788 321.538C731.788 354.977 760.462 380 798.693 380C829.144 380 852.928 365.385 861.374 342.797H829.811C824.032 350.769 813.363 355.641 800.026 355.641C781.355 355.641 767.13 345.012 763.796 329.068H864.708ZM763.796 313.566C767.13 298.065 780.688 287.657 798.693 287.657C816.919 287.657 830.033 297.844 833.145 313.566H763.796Z" fill="#F1F6FD"/>
<path d="M970.075 262.634C946.291 262.634 927.843 275.035 917.618 294.744L914.284 265.956H886.5V376.678H917.618V345.233C917.618 314.231 936.956 295.408 970.075 295.408V262.634Z" fill="#F1F6FD"/>
<path d="M1021.84 286.993V221.667H990.722V286.993L994.501 332.832H1017.62L1021.84 286.993ZM989.833 363.835C989.833 373.8 996.279 380 1006.28 380C1015.84 380 1022.28 373.8 1022.28 363.835C1022.28 354.534 1015.84 347.89 1006.28 347.89C996.279 347.89 989.833 354.534 989.833 363.835Z" fill="#F1F6FD"/>
</g>
</svg>
