<svg width="113" height="130" viewBox="0 0 113 130" fill="none" xmlns="http://www.w3.org/2000/svg">
<path d="M113 32.3086L89.8705 18.9864L79.5666 24.9226V13.3256L56.4414 0L33.313 13.3256V24.8568L23.1263 18.9885L0 32.3106V58.9537L10.7093 65.1258L0 71.2956V97.941L23.1263 111.26L33.313 105.391V116.677L56.4402 130L79.5709 116.678V105.327L89.8702 111.26L113 97.9398V71.2933L102.288 65.1235L113 58.9537L113 32.3086ZM109.54 56.9602L91.6006 67.2931L91.6051 46.6292L109.54 36.2974L109.54 56.9602ZM109.54 95.9457L91.6006 106.276L91.6051 85.6104L109.54 75.2806L109.54 95.9457ZM76.1095 114.684L58.1703 125.016L58.1738 104.348L76.1095 94.0184L76.1095 114.684ZM23.1272 22.9755L41.0629 33.3053L23.1284 43.6372L5.19034 33.3053L23.1272 22.9755ZM56.4411 3.98677L74.3756 14.3198L56.4434 24.6507L38.5054 14.3209L56.4411 3.98677ZM56.4434 101.359L38.5053 91.0275L56.4399 80.6977L74.3791 91.0275L56.4434 101.359ZM42.7918 36.2953V56.9593L24.8561 67.2923L24.8572 46.6272L42.7918 36.2953ZM66.7496 71.2909V82.6454L56.4402 76.7092L46.2535 82.5775V71.2933L35.5442 65.1235L46.2535 58.9514V47.4202L56.4425 53.2897L66.7496 47.35V58.9493L77.4554 65.1191L66.7496 71.2909ZM89.8759 43.6354L71.9402 33.3036L89.8713 22.9738L107.81 33.3036L89.8759 43.6354ZM76.106 26.9162L66.7496 32.3059V43.3624L58.1715 48.3044L58.1726 27.6404L76.1048 17.3106L76.106 26.9162ZM23.1266 72.277L32.0819 67.1173L41.0623 72.2918L23.1277 82.6204L5.1897 72.2918L14.1701 67.1173L23.1266 72.277ZM24.8579 85.6116L42.7924 75.2829V84.5733L33.3133 90.0313V101.406L24.8579 106.276V85.6116ZM89.8745 82.6201L71.9388 72.2883L80.9157 67.1138L89.8699 72.2735L98.8275 67.1138L107.809 72.2883L89.8745 82.6201Z" fill="url(#paint0_linear_121_499)"/>
<path d="M113 32.3086L89.8705 18.9864L79.5666 24.9226V13.3256L56.4414 0L33.313 13.3256V24.8568L23.1263 18.9885L0 32.3106V58.9537L10.7093 65.1258L0 71.2956V97.941L23.1263 111.26L33.313 105.391V116.677L56.4402 130L79.5709 116.678V105.327L89.8702 111.26L113 97.9398V71.2933L102.288 65.1235L113 58.9537L113 32.3086ZM109.54 56.9602L91.6006 67.2931L91.6051 46.6292L109.54 36.2974L109.54 56.9602ZM109.54 95.9457L91.6006 106.276L91.6051 85.6104L109.54 75.2806L109.54 95.9457ZM76.1095 114.684L58.1703 125.016L58.1738 104.348L76.1095 94.0184L76.1095 114.684ZM23.1272 22.9755L41.0629 33.3053L23.1284 43.6372L5.19034 33.3053L23.1272 22.9755ZM56.4411 3.98677L74.3756 14.3198L56.4434 24.6507L38.5054 14.3209L56.4411 3.98677ZM56.4434 101.359L38.5053 91.0275L56.4399 80.6977L74.3791 91.0275L56.4434 101.359ZM42.7918 36.2953V56.9593L24.8561 67.2923L24.8572 46.6272L42.7918 36.2953ZM66.7496 71.2909V82.6454L56.4402 76.7092L46.2535 82.5775V71.2933L35.5442 65.1235L46.2535 58.9514V47.4202L56.4425 53.2897L66.7496 47.35V58.9493L77.4554 65.1191L66.7496 71.2909ZM89.8759 43.6354L71.9402 33.3036L89.8713 22.9738L107.81 33.3036L89.8759 43.6354ZM76.106 26.9162L66.7496 32.3059V43.3624L58.1715 48.3044L58.1726 27.6404L76.1048 17.3106L76.106 26.9162ZM23.1266 72.277L32.0819 67.1173L41.0623 72.2918L23.1277 82.6204L5.1897 72.2918L14.1701 67.1173L23.1266 72.277ZM24.8579 85.6116L42.7924 75.2829V84.5733L33.3133 90.0313V101.406L24.8579 106.276V85.6116ZM89.8745 82.6201L71.9388 72.2883L80.9157 67.1138L89.8699 72.2735L98.8275 67.1138L107.809 72.2883L89.8745 82.6201Z" fill="#152428"/>
<defs>
<linearGradient id="paint0_linear_121_499" x1="56.5" y1="0" x2="56.5" y2="130" gradientUnits="userSpaceOnUse">
<stop stop-color="#1169FF"/>
<stop offset="1" stop-color="#11C6FF"/>
</linearGradient>
</defs>
</svg>
