<svg width="27" height="23" viewBox="0 0 27 23" fill="none" xmlns="http://www.w3.org/2000/svg">
<path d="M0.852121 8.19742L12.8282 14.428C12.969 14.5012 13.1216 14.5376 13.2749 14.5376C13.4281 14.5376 13.5807 14.5012 13.7215 14.428L25.6976 8.19742C26.0353 8.0215 26.249 7.66176 26.249 7.26866C26.249 6.87556 26.0353 6.51577 25.6976 6.33989L13.7215 0.109346C13.4406 -0.0364487 13.1098 -0.0364487 12.8289 0.109346L0.852805 6.33989C0.514418 6.51582 0.300781 6.87556 0.300781 7.26866C0.300781 7.66176 0.514418 8.02154 0.852138 8.19742H0.852121Z" fill="#AAC9FE"/>
<path d="M24.8047 10.4937L13.2752 16.4923L1.74561 10.4937C1.25307 10.2378 0.653391 10.4455 0.406341 10.9585C0.159736 11.4714 0.360005 12.0949 0.852992 12.352L12.8291 18.5825C12.9692 18.6551 13.1218 18.6915 13.2751 18.6915C13.4283 18.6915 13.5809 18.6551 13.7217 18.5818L25.6978 12.3513C26.1908 12.0947 26.3908 11.4712 26.1445 10.9578C25.8974 10.446 25.2991 10.2362 24.8045 10.4937L24.8047 10.4937Z" fill="#AAC9FE"/>
<path d="M24.8047 14.6476L13.2752 20.6461L1.74561 14.6476C1.25307 14.3917 0.653391 14.5987 0.406341 15.1123C0.159736 15.6253 0.360005 16.2488 0.852992 16.5058L12.8291 22.7364C12.9692 22.8089 13.1218 22.8453 13.2751 22.8453C13.4283 22.8453 13.5809 22.8089 13.7217 22.7357L25.6978 16.5051C26.1908 16.2485 26.3908 15.625 26.1445 15.1116C25.8974 14.5991 25.2991 14.3905 24.8045 14.6476L24.8047 14.6476Z" fill="#AAC9FE"/>
</svg>
