<svg width="29" height="25" viewBox="0 0 29 25" fill="none" xmlns="http://www.w3.org/2000/svg">
<path d="M9.60743 12.9054C10.8687 12.9054 11.8946 11.8377 11.8946 10.5256C11.8948 9.21332 10.8687 8.14563 9.60743 8.14563C8.34619 8.14563 7.32031 9.21332 7.32031 10.5254C7.32031 11.8377 8.34644 12.9054 9.60743 12.9054Z" fill="#AAC9FE"/>
<path d="M0 6.1724V19.8115L3.82205 17.1937C4.85653 16.4851 6.18993 16.4905 7.21928 17.2071L10.2487 19.3167C11.0031 19.8418 12.0138 19.6565 12.5499 18.8946L16.6022 13.1382C17.1879 12.306 18.0895 11.8307 19.079 11.8307C19.0884 11.8307 19.0978 11.8307 19.1074 11.831C20.1081 11.8403 21.0129 12.3332 21.5899 13.1839L24.9472 18.1331L24.9469 6.17187C24.9469 4.98134 24.0161 4.01294 22.872 4.01294H2.07492C0.930728 4.01294 1.97806e-05 4.9814 1.97806e-05 6.17187L0 6.1724ZM9.60872 6.70597C11.6328 6.70597 13.2791 8.41926 13.2791 10.525C13.2791 12.6308 11.6325 14.3441 9.60872 14.3441C7.58491 14.3441 5.93831 12.6308 5.93831 10.525C5.93831 8.41926 7.58491 6.70597 9.60872 6.70597Z" fill="#AAC9FE"/>
<path d="M24.3537 23.6231C24.7465 23.2101 24.9597 22.6626 24.9537 22.0818L24.9468 21.3924V21.385V20.6298L20.4595 14.0146C20.1424 13.5471 19.6451 13.2759 19.095 13.2708H19.0795C18.5355 13.2708 18.04 13.5321 17.7179 13.9894L13.6656 19.7458C12.6899 21.1316 10.8511 21.4687 9.47922 20.5133L6.44983 18.4037C5.88392 18.0099 5.15102 18.0069 4.5824 18.3963L0 21.5347V22.1043C0 23.2948 0.930772 24.2632 2.0749 24.2632H22.8789C23.437 24.2637 23.9608 24.0365 24.3536 23.6232L24.3537 23.6231Z" fill="#AAC9FE"/>
<path d="M20.1309 4.77333C20.1309 5.55087 20.7612 6.18119 21.5387 6.18119H21.9951C22.4724 6.18119 22.8593 6.56812 22.8593 7.04542V7.64127C22.8593 8.40961 23.4822 9.03247 24.2505 9.03247C25.0188 9.03247 25.6417 8.40961 25.6417 7.64127V7.04542C25.6417 6.56812 26.0286 6.18119 26.5059 6.18119H26.9623C27.7398 6.18119 28.3702 5.55087 28.3702 4.77333C28.3702 3.99578 27.7398 3.36546 26.9623 3.36546H26.5059C26.0286 3.36546 25.6417 2.97853 25.6417 2.50124V1.8912C25.6417 1.12286 25.0188 0.5 24.2505 0.5C23.4822 0.5 22.8593 1.12286 22.8593 1.8912V2.50123C22.8593 2.97853 22.4724 3.36546 21.9951 3.36546H21.5387C20.7612 3.36546 20.1309 3.99578 20.1309 4.77333Z" fill="url(#paint0_linear_121_281)" stroke="white"/>
<defs>
<linearGradient id="paint0_linear_121_281" x1="26.6541" y1="9.00323" x2="28.4105" y2="3.12447" gradientUnits="userSpaceOnUse">
<stop stop-color="#0194EC"/>
<stop offset="1" stop-color="#36FF86"/>
</linearGradient>
</defs>
</svg>
