<svg width="65" height="65" viewBox="0 0 65 65" fill="none" xmlns="http://www.w3.org/2000/svg">
<circle cx="32.1718" cy="32.1717" r="26.5" transform="rotate(69.501 32.1718 32.1717)" fill="white" stroke="#E8EFFB" stroke-width="3"/>
<path d="M30.7417 42.4799L23.548 35.2379C23.2038 34.9086 23.0062 34.4534 23.0001 33.9754C22.994 33.4976 23.1797 33.0374 23.5154 32.6993C23.8509 32.3613 24.3079 32.1738 24.7825 32.1796C25.2572 32.1854 25.7096 32.3839 26.0369 32.7301L30.2829 37.0108L30.2829 22.7732C30.2829 22.1397 30.6187 21.5543 31.1636 21.2375C31.7086 20.9208 32.3799 20.9208 32.9248 21.2375C33.4698 21.5543 33.8056 22.1397 33.8056 22.7732L33.8056 36.9712L38.0254 32.7301C38.4739 32.3008 39.1132 32.1402 39.7095 32.3067C40.3058 32.4732 40.7714 32.9425 40.9363 33.5429C41.1011 34.1432 40.9409 34.7868 40.5143 35.2379L33.3205 42.4799C32.991 42.8137 32.5424 43.0006 32.075 42.9991C32.0604 43.0003 32.0458 43.0003 32.0313 42.9991C32.0168 43.0002 32.0022 43.0002 31.9875 42.9991C31.5205 42.9989 31.0722 42.8121 30.7417 42.4799Z" fill="#5F94ED"/>
</svg>
