<svg width="26" height="23" viewBox="0 0 26 23" fill="none" xmlns="http://www.w3.org/2000/svg">
<path d="M10.4994 10.4943C11.5929 10.2654 12.3033 9.15362 12.0834 8.01611C11.8636 6.87833 10.7951 6.1389 9.7016 6.36778C8.60815 6.59667 7.89772 7.70848 8.11765 8.84599C8.33762 9.98372 9.40621 10.7232 10.4994 10.4943Z" fill="#AAC9FE"/>
<path d="M1.03971 6.40086L3.32591 18.2254L6.2007 15.2623C6.97878 14.4602 8.13569 14.223 9.14822 14.6574L12.1282 15.9366C12.8703 16.2549 13.7155 15.9108 14.0525 15.1531L16.6008 9.42709C16.9691 8.59932 17.6711 8.02367 18.529 7.8441C18.5371 7.84239 18.5453 7.84069 18.5537 7.83917C19.4227 7.6656 20.2898 7.92877 20.9327 8.56158L24.6729 12.2431L22.6677 1.8732C22.4681 0.84105 21.4988 0.170394 20.5069 0.378023L2.47662 4.15214C1.48464 4.35978 0.840088 5.36831 1.03964 6.4004L1.03971 6.40086ZM9.45955 5.11972C11.2143 4.75241 12.9289 5.939 13.2818 7.76462C13.6348 9.59024 12.4944 11.3744 10.7399 11.7417C8.9853 12.1089 7.27057 10.9224 6.9176 9.09678C6.56463 7.27116 7.70499 5.48699 9.45955 5.11972Z" fill="#AAC9FE"/>
<path d="M25.0796 17.1103C25.3508 16.6809 25.4439 16.1676 25.3414 15.6651L25.2198 15.0687L25.2186 15.0622L25.092 14.4075L20.0928 9.4867C19.7395 9.13893 19.2629 8.99407 18.7852 9.08945L18.7717 9.09227C18.3001 9.19098 17.9143 9.50752 17.7117 9.96238L15.1634 15.6884C14.5498 17.0669 13.0121 17.6928 11.6626 17.1135L8.68263 15.8343C8.126 15.5956 7.49009 15.726 7.06239 16.1667L3.61569 19.7192L3.71116 20.213C3.91072 21.2452 4.87999 21.9158 5.87191 21.7082L23.9082 17.9328C24.3921 17.832 24.8082 17.5399 25.0794 17.1103L25.0796 17.1103Z" fill="#AAC9FE"/>
</svg>
