<svg width="92" height="61" viewBox="0 0 92 61" fill="none" xmlns="http://www.w3.org/2000/svg">
<path d="M89.2249 3.72137C87.2987 3.18988 85.5121 2.62166 83.623 2.22854C81.7345 1.83579 79.8454 1.44269 77.9059 1.13804C75.9663 0.833388 74.0635 0.665957 72.1611 0.499666C70.2586 0.33331 68.3053 0.254368 66.4398 0.226418C64.4866 0.147495 62.5701 0.207626 60.6539 0.266939C58.7374 0.326979 56.8212 0.386348 54.9424 0.585099C51.147 0.843944 47.3748 1.46669 43.6908 2.14163C40.0068 2.81631 36.2721 3.57859 32.662 4.53009C29.0525 5.48195 25.3916 6.5215 21.87 7.52416C14.725 9.70509 7.74176 12.2154 0.758784 14.7248C4.44285 14.0501 8.03883 13.325 11.7227 12.6502L22.599 10.5247C26.1953 9.79905 29.8283 9.21233 33.4612 8.62552C37.0942 8.0388 40.7648 7.5908 44.3841 7.22978C48.0034 6.86875 51.6089 6.7353 55.2148 6.60105C56.9919 6.57779 58.7696 6.55494 60.6354 6.58234C62.4502 6.69778 64.2272 6.67451 65.9912 6.87746C67.806 6.9929 69.5696 7.19642 71.2824 7.48633C72.0511 7.58088 72.8192 7.67506 73.6249 7.90793L69.4974 9.14503C63.7408 10.9605 57.9835 12.7753 52.2639 14.729C46.5443 16.6827 40.8614 18.7754 35.1148 21.1815C32.3108 22.3668 29.4555 23.6393 26.536 25.2259C25.1201 26.0446 23.7043 26.8634 22.2243 27.9963C21.4151 28.581 20.693 29.2163 19.907 30.1668C19.5142 30.6417 19.0697 31.2043 18.6497 32.1318C18.2799 32.9714 17.9203 34.403 18.2912 35.7899L18.3282 35.9282C18.686 37.5414 20.0657 38.8109 21.7421 38.9629C28.2043 39.7829 34.7172 40.5155 41.4985 40.5834C42.7715 40.619 44.1832 40.6176 45.5068 40.5658C44.6465 41.2386 43.8366 41.823 43.0644 42.546C40.571 44.6143 38.2537 46.7848 36.0245 49.0054C33.7949 51.2268 31.6537 53.4995 29.5124 55.7711L29.4617 55.8585C29.1707 56.158 29.0548 56.5598 29.1662 56.9759C29.4263 57.9472 30.1532 58.7203 30.8943 59.2671C31.6353 59.8139 32.4407 60.0473 33.2464 60.2802C34.7692 60.6954 36.2694 60.7452 37.7691 60.7956C40.7313 60.7571 43.5824 60.3019 46.4334 59.8473C43.5219 59.7984 40.6104 59.7496 37.8514 59.4377C36.4531 59.2125 35.0553 58.9875 33.8099 58.4987C33.2314 58.28 32.7036 57.9738 32.2265 57.5802C32.2265 57.5802 31.9256 57.2887 31.8005 57.0985C34.0027 55.3302 36.1675 53.4227 38.4573 51.7054C39.697 50.7845 40.9367 49.8635 42.0886 48.8916C43.3284 47.9707 44.5681 47.0497 45.757 46.2162C48.2741 44.513 50.8785 42.8614 53.5064 41.5738C54.8205 40.9305 56.1348 40.2866 57.486 39.7816C58.8371 39.2766 60.1881 38.7718 61.5769 38.4055C63.1042 38.0027 64.1582 36.3881 63.8004 34.7749C63.4938 33.0737 61.785 31.9656 60.0815 32.2661L59.8546 32.2513C58.3781 32.5666 56.8649 32.743 55.351 32.919C53.8378 33.0953 52.287 33.133 50.8245 33.2219C49.2737 33.2595 47.7234 33.2975 46.2237 33.2471C44.7235 33.1974 43.0853 33.1835 41.5481 32.9954C38.4605 32.8443 35.2991 32.416 32.1744 32.1265C31.9475 32.1117 31.8598 32.0608 31.6325 32.0467C33.7428 31.0447 35.9914 30.0064 38.2772 29.1065C43.6963 26.8607 49.3274 24.8557 54.9085 22.9384C60.5403 20.9338 66.2092 19.0675 71.878 17.2014L80.4759 14.3399L84.756 12.8398C86.2462 12.2987 87.5466 11.8813 89.2263 11.2156L89.3648 11.1791C90.4386 10.7478 91.1735 9.88546 91.6084 8.7313C92.4256 6.51523 91.2388 4.30369 89.2249 3.72137Z" fill="#152428"/>
</svg>
