<svg width="26" height="27" viewBox="0 0 26 27" fill="none" xmlns="http://www.w3.org/2000/svg">
<path d="M21.1086 13.0526C20.9789 12.8773 20.9041 12.7117 20.8603 12.563C20.1813 12.644 17.9615 12.9728 15.6037 14.1582C13.2219 15.3512 10.164 15.8389 9.28741 15.9559C9.34187 16.3177 9.27208 16.6109 9.078 16.8353C8.85815 17.1491 8.47739 17.2706 8.22486 17.2971L8.86515 20.8845C9.40662 20.9555 9.79621 21.1292 10.0484 21.4552C10.1781 21.6305 10.2529 21.7961 10.2967 21.9448C11.0471 21.841 13.6549 21.4155 16.0273 20.2797C18.8465 18.8929 21.1047 18.6061 21.8696 18.5519C21.8224 18.2148 21.8922 17.9218 22.079 17.6725C22.2988 17.3587 22.6796 17.2372 22.9321 17.2107L22.2918 13.6233C21.7504 13.5523 21.3535 13.3537 21.1086 13.0526ZM17.2802 17.1987C17.3601 17.8233 17.2349 18.4591 16.9088 18.9423C16.6632 19.3455 16.3098 19.6479 15.9053 19.7769C15.8102 19.8073 15.7149 19.8377 15.6126 19.8433C15.0836 19.9037 14.5844 19.7108 14.153 19.3067C13.7454 18.8951 13.4752 18.3311 13.4191 17.6992C13.2612 16.3683 14.0053 15.183 15.063 15.0623C16.1372 14.9091 17.1223 15.8678 17.2801 17.1987L17.2802 17.1987Z" fill="#AAC9FE"/>
<path d="M15.1395 15.498C14.3105 15.5999 13.7607 16.5606 13.8693 17.6365C13.92 18.1619 14.1373 18.6343 14.4754 18.987C14.8062 19.3149 15.1885 19.4637 15.5672 19.4241C15.9699 19.377 16.3141 19.1317 16.5358 18.7361C16.7814 18.3328 16.8881 17.8111 16.8374 17.2857C16.7215 16.1851 15.961 15.3714 15.1395 15.498L15.1395 15.498Z" fill="#AAC9FE"/>
<path d="M23.3232 10.9382C23.2373 10.9114 21.0462 10.0123 13.7809 13.0065C9.55245 14.7342 6.49518 14.5175 6.47139 14.5251C6.39274 14.5232 6.34511 14.5384 6.28829 14.6105C6.24793 14.6504 6.22233 14.7398 6.24426 14.8142L7.68803 23.4269C7.70991 23.5012 7.75552 23.5679 7.81775 23.6022C7.911 23.6537 10.327 24.6978 16.1336 22.1418C21.7498 19.6465 24.6458 20.0229 24.6769 20.04C24.7079 20.0571 24.7318 20.0495 24.7793 20.0344C24.803 20.0268 24.8506 20.0116 24.8671 19.9793C24.9075 19.9395 24.9331 19.8501 24.9111 19.7756L23.4289 11.1211C23.4236 11.0145 23.378 10.9478 23.3231 10.9383L23.3232 10.9382ZM23.3697 17.3693C23.3916 17.4436 23.3586 17.5083 23.3184 17.5482C23.278 17.5881 23.214 17.6357 23.159 17.626C23.159 17.626 22.6394 17.6293 22.3957 17.9507C22.2655 18.1277 22.236 18.3808 22.3309 18.7027C22.3527 18.777 22.3436 18.8341 22.2868 18.9064C22.2465 18.9463 22.2301 18.9787 22.1824 18.9939L22.1348 19.0091C22.1111 19.0167 19.5347 19.1071 16.2065 20.7101C13.3397 22.1118 10.1355 22.4567 10.1044 22.4396C10.0258 22.4376 9.97082 22.428 9.93253 22.3861C9.8942 22.3441 9.87232 22.2699 9.88146 22.2128C9.87418 22.1881 9.89864 21.476 8.69668 21.3719C8.5943 21.3775 8.51746 21.2936 8.48831 21.1946L7.77878 17.1959C7.7569 17.1216 7.78994 17.0568 7.83013 17.017C7.87049 16.9771 7.93453 16.9295 7.9895 16.9392C7.9895 16.9392 8.50909 16.9359 8.75283 16.6145C8.883 16.4375 8.91247 16.1844 8.81765 15.8625C8.79577 15.7882 8.8049 15.7311 8.84526 15.6912C8.8783 15.6265 8.94967 15.6037 8.9973 15.5885C9.02104 15.5809 12.7158 15.1339 15.4233 13.81C18.3541 12.3606 20.949 12.156 21.0515 12.1505C21.1301 12.1524 21.1851 12.1621 21.2307 12.2288C21.269 12.2708 21.2909 12.345 21.2818 12.4022C21.289 12.4269 21.2407 13.1466 22.4666 13.243C22.5689 13.2374 22.6458 13.3213 22.6749 13.4203L23.3697 17.3693Z" fill="#AAC9FE"/>
<path d="M2.16471 8.47754L3.09486 11.4581C3.30897 11.3899 3.62561 11.3159 3.92199 11.4381C4.13238 11.5334 4.31685 11.7183 4.4283 12.0079C5.02503 11.7364 6.83719 10.9959 9.54908 10.8351C11.8035 10.712 13.9395 9.92233 14.5436 9.67564C14.5071 9.55181 14.4871 9.39572 14.5386 9.21682C14.5939 8.87425 14.8449 8.57751 15.2056 8.29997L14.2755 5.31936C14.0614 5.38765 13.7447 5.46162 13.4483 5.33944C13.2142 5.25164 13.0462 5.03433 12.9348 4.74489C12.2355 5.02213 9.72606 5.95792 7.44054 6.06376C5.17886 6.16219 3.37598 6.84542 2.81943 7.07716C2.85591 7.20099 2.87593 7.35708 2.83168 7.56067C2.769 7.87859 2.52523 8.20004 2.16453 8.47758L2.16471 8.47754ZM8.16279 6.48335C9.02126 6.12832 10.0544 6.71961 10.4467 7.78624C10.6476 8.29105 10.6579 8.8564 10.5129 9.336C10.3679 9.81565 10.0363 10.1921 9.62249 10.3783L9.38447 10.4542C9.04409 10.5358 8.65988 10.4686 8.31064 10.2551C7.89916 10.0071 7.54649 9.60502 7.36227 9.06788C6.93898 7.98415 7.30415 6.83845 8.16279 6.48335Z" fill="#AAC9FE"/>
<path d="M8.29803 6.84694C8.97338 6.57733 9.76517 7.05613 10.0993 7.92459C10.2543 8.36258 10.2832 8.81397 10.1639 9.20398C10.0446 9.59417 9.80996 9.85848 9.48417 9.98961C9.15833 10.1205 8.81253 10.0956 8.46324 9.88183C8.11399 9.66826 7.83081 9.32517 7.68292 8.91196C7.38021 8.06066 7.65373 7.13387 8.298 6.84695L8.29803 6.84694Z" fill="#AAC9FE"/>
<path d="M0.285799 7.04557L2.55819 14.2294C2.57279 14.2789 2.6184 14.3456 2.67331 14.3551C2.70432 14.3722 2.72822 14.3646 2.77569 14.3495L2.84706 14.3267C2.87079 14.3191 4.89798 12.8058 10.137 12.2997C15.5333 11.7974 16.946 9.96564 17.0265 9.88572C17.0669 9.84583 17.0688 9.764 17.0542 9.71444L14.7818 2.53065C14.7672 2.48108 14.7216 2.41439 14.6667 2.40489C14.6117 2.39539 14.557 2.38566 14.4927 2.43334C14.469 2.44091 12.2461 3.9082 8.35381 4.39122C1.69136 5.1889 0.370033 6.80201 0.313676 6.8742C0.273315 6.91409 0.271457 6.99592 0.286058 7.04549L0.285799 7.04557ZM1.76449 8.44281C1.74261 8.36855 1.76837 8.2791 1.85615 8.2239C2.74426 7.61571 2.43375 7.09165 2.42648 7.06698C2.38814 7.02499 2.39733 6.96803 2.40646 6.91089C2.41559 6.85376 2.45596 6.81387 2.50359 6.79868C2.5987 6.76835 4.62887 5.79592 7.42675 5.66194C9.99579 5.54673 12.9612 4.30302 12.985 4.29543C13.0327 4.28024 13.0874 4.28979 13.1424 4.29947C13.2046 4.33384 13.2191 4.38323 13.2338 4.4328C13.2902 4.71271 13.42 4.88805 13.5754 4.97389C13.8791 5.12076 14.2782 4.88523 14.2782 4.88523C14.3258 4.87004 14.3972 4.84727 14.4355 4.88927C14.4904 4.89877 14.536 4.96546 14.5506 5.01503L15.5829 8.34224C15.6048 8.4165 15.579 8.50596 15.4912 8.56116C14.5958 9.14465 14.9063 9.66851 14.9209 9.71807C14.9592 9.76007 14.95 9.81703 14.9409 9.87416C14.9318 9.9313 14.8914 9.97118 14.82 9.99395C14.7963 10.0015 12.2591 11.1086 9.51618 11.2521C6.37071 11.4427 4.37888 12.4572 4.35508 12.4647L4.30745 12.4799C4.25981 12.4951 4.2288 12.478 4.19774 12.4607C4.13551 12.4263 4.09722 12.3845 4.08262 12.3349C4.02613 12.055 3.8964 11.8797 3.74093 11.7939C3.43729 11.647 3.03821 11.8825 3.03821 11.8825C2.99057 11.8977 2.9192 11.9205 2.88087 11.8785C2.82596 11.869 2.78035 11.8023 2.76575 11.7527L1.76449 8.44281Z" fill="#AAC9FE"/>
</svg>
