<svg width="70" height="149" viewBox="0 0 70 149" fill="none" xmlns="http://www.w3.org/2000/svg">
<path d="M69.5132 93.8547L53.8706 42.9013C52.8115 39.4505 50.5981 35.9832 48.0696 33.4619L49.624 33.5997L54.5774 37.0392L55.9712 21.2308C56.6883 20.9914 57.4997 20.3396 58.0448 18.7303C58.9153 16.1531 58.308 10.8266 57.8593 7.83793C58.3536 7.78923 58.8189 7.52704 59.0655 7.05762L60.6427 4.03894C61.0303 3.298 60.7412 2.37366 59.9992 1.98711L56.819 0.324942C56.078 -0.0626133 55.1537 0.226497 54.7671 0.968472L54.7133 1.0721C54.1661 1.0949 53.5309 1.54049 53.3609 2.03376C53.0055 3.07625 53.0811 3.90734 53.0283 4.54569C53.0272 4.56331 53.0272 4.57989 53.0252 4.5975C53.0252 4.60372 53.0252 4.61098 53.0241 4.61719C52.9868 4.98817 53.1029 5.33949 53.3267 5.59026C53.365 5.64207 53.4086 5.6856 53.4531 5.73327C53.4562 5.73637 53.4593 5.73948 53.4635 5.74259C53.5733 5.85555 53.6863 5.96539 53.8324 6.04311L54.3671 6.3229C53.1412 8.53743 50.2417 14.0732 50.5743 16.3146C50.7018 17.1706 51.136 17.9581 51.6572 18.6545L44.0923 30.4982C43.6675 30.2868 43.2426 30.1034 42.8271 29.9728C41.9742 29.7044 40.9949 29.5044 39.9721 29.3417C41.884 28.064 42.5596 25.8516 42.5596 23.3314C42.5596 19.3739 37.8383 15.1678 35.3948 15.1678C33.0787 15.1678 28.23 19.3739 28.23 23.3314C28.23 25.778 28.8838 27.9354 30.6704 29.2279C29.3989 29.3958 28.2041 29.6362 27.1729 29.9585C26.7957 30.0776 26.4122 30.2403 26.0257 30.4248L18.4102 18.5015C18.9314 17.8051 19.3656 17.0176 19.4931 16.1616C19.8278 13.9202 16.9262 8.38452 15.7003 6.16991L16.235 5.89012C16.3801 5.81447 16.4951 5.70255 16.6039 5.5896C16.607 5.58649 16.6111 5.58338 16.6143 5.58028C16.6588 5.53261 16.7034 5.49012 16.7407 5.43727C16.9645 5.18442 17.0806 4.83521 17.0422 4.4642C17.0422 4.45799 17.0422 4.4528 17.0412 4.44659C17.0402 4.42897 17.0402 4.41135 17.0381 4.3927C16.9842 3.75228 17.0619 2.92326 16.7054 1.88077C16.5376 1.3875 15.9013 0.941896 15.3531 0.919108L15.2992 0.815479C14.9117 0.0745372 13.9894 -0.215606 13.2474 0.17195L10.0701 1.83309C9.32913 2.22064 9.03898 3.14293 9.42654 3.88491L11.0037 6.90359C11.2493 7.37405 11.7157 7.63416 12.21 7.6839C11.7623 10.6726 11.154 15.999 12.0245 18.5763C12.5685 20.1856 13.3789 20.8374 14.098 21.0768L15.4918 36.8851L20.4452 33.4457L22.0701 33.3006C19.4856 35.8281 17.2141 39.3576 16.1333 42.8705L0.482513 93.8558C-1.28537 99.6122 1.9592 102.812 7.69085 100.966L14.7933 98.6776V125.896C14.7933 126.909 15.6223 137.563 16.6358 137.563C17.6493 137.563 18.4783 126.908 18.4783 125.896V97.4918L23.0898 96.0057L27.8596 106.398C27.2441 107.336 26.7964 108.434 26.7964 109.103C26.7964 109.103 28.4109 110.781 29.0741 113.159C30.0876 116.794 30.4243 121.961 31.4928 124.469C31.814 125.22 32.7974 126.299 33.5725 126.299C34.4783 126.084 35.3953 125.161 35.3953 124.457C35.3953 125.161 36.3124 126.084 37.2181 126.299C37.9922 126.299 38.9767 125.222 39.2979 124.469C40.3663 121.961 40.7021 116.793 41.7166 113.159C42.3808 110.781 43.9943 109.103 43.9943 109.103C43.9943 108.435 43.5456 107.336 42.9311 106.398L47.667 96.0784L52.271 97.5935V125.897C52.271 126.91 53.1 137.564 54.1135 137.564C55.127 137.564 55.956 126.909 55.956 125.897L55.9529 98.8058L62.3229 100.902C68.044 102.783 71.2784 99.613 69.5127 93.8565L69.5132 93.8547Z" fill="url(#paint0_linear_121_502)"/>
<path d="M69.5132 93.8547L53.8706 42.9013C52.8115 39.4505 50.5981 35.9832 48.0696 33.4619L49.624 33.5997L54.5774 37.0392L55.9712 21.2308C56.6883 20.9914 57.4997 20.3396 58.0448 18.7303C58.9153 16.1531 58.308 10.8266 57.8593 7.83793C58.3536 7.78923 58.8189 7.52704 59.0655 7.05762L60.6427 4.03894C61.0303 3.298 60.7412 2.37366 59.9992 1.98711L56.819 0.324942C56.078 -0.0626133 55.1537 0.226497 54.7671 0.968472L54.7133 1.0721C54.1661 1.0949 53.5309 1.54049 53.3609 2.03376C53.0055 3.07625 53.0811 3.90734 53.0283 4.54569C53.0272 4.56331 53.0272 4.57989 53.0252 4.5975C53.0252 4.60372 53.0252 4.61098 53.0241 4.61719C52.9868 4.98817 53.1029 5.33949 53.3267 5.59026C53.365 5.64207 53.4086 5.6856 53.4531 5.73327C53.4562 5.73637 53.4593 5.73948 53.4635 5.74259C53.5733 5.85555 53.6863 5.96539 53.8324 6.04311L54.3671 6.3229C53.1412 8.53743 50.2417 14.0732 50.5743 16.3146C50.7018 17.1706 51.136 17.9581 51.6572 18.6545L44.0923 30.4982C43.6675 30.2868 43.2426 30.1034 42.8271 29.9728C41.9742 29.7044 40.9949 29.5044 39.9721 29.3417C41.884 28.064 42.5596 25.8516 42.5596 23.3314C42.5596 19.3739 37.8383 15.1678 35.3948 15.1678C33.0787 15.1678 28.23 19.3739 28.23 23.3314C28.23 25.778 28.8838 27.9354 30.6704 29.2279C29.3989 29.3958 28.2041 29.6362 27.1729 29.9585C26.7957 30.0776 26.4122 30.2403 26.0257 30.4248L18.4102 18.5015C18.9314 17.8051 19.3656 17.0176 19.4931 16.1616C19.8278 13.9202 16.9262 8.38452 15.7003 6.16991L16.235 5.89012C16.3801 5.81447 16.4951 5.70255 16.6039 5.5896C16.607 5.58649 16.6111 5.58338 16.6143 5.58028C16.6588 5.53261 16.7034 5.49012 16.7407 5.43727C16.9645 5.18442 17.0806 4.83521 17.0422 4.4642C17.0422 4.45799 17.0422 4.4528 17.0412 4.44659C17.0402 4.42897 17.0402 4.41135 17.0381 4.3927C16.9842 3.75228 17.0619 2.92326 16.7054 1.88077C16.5376 1.3875 15.9013 0.941896 15.3531 0.919108L15.2992 0.815479C14.9117 0.0745372 13.9894 -0.215606 13.2474 0.17195L10.0701 1.83309C9.32913 2.22064 9.03898 3.14293 9.42654 3.88491L11.0037 6.90359C11.2493 7.37405 11.7157 7.63416 12.21 7.6839C11.7623 10.6726 11.154 15.999 12.0245 18.5763C12.5685 20.1856 13.3789 20.8374 14.098 21.0768L15.4918 36.8851L20.4452 33.4457L22.0701 33.3006C19.4856 35.8281 17.2141 39.3576 16.1333 42.8705L0.482513 93.8558C-1.28537 99.6122 1.9592 102.812 7.69085 100.966L14.7933 98.6776V125.896C14.7933 126.909 15.6223 137.563 16.6358 137.563C17.6493 137.563 18.4783 126.908 18.4783 125.896V97.4918L23.0898 96.0057L27.8596 106.398C27.2441 107.336 26.7964 108.434 26.7964 109.103C26.7964 109.103 28.4109 110.781 29.0741 113.159C30.0876 116.794 30.4243 121.961 31.4928 124.469C31.814 125.22 32.7974 126.299 33.5725 126.299C34.4783 126.084 35.3953 125.161 35.3953 124.457C35.3953 125.161 36.3124 126.084 37.2181 126.299C37.9922 126.299 38.9767 125.222 39.2979 124.469C40.3663 121.961 40.7021 116.793 41.7166 113.159C42.3808 110.781 43.9943 109.103 43.9943 109.103C43.9943 108.435 43.5456 107.336 42.9311 106.398L47.667 96.0784L52.271 97.5935V125.897C52.271 126.91 53.1 137.564 54.1135 137.564C55.127 137.564 55.956 126.909 55.956 125.897L55.9529 98.8058L62.3229 100.902C68.044 102.783 71.2784 99.613 69.5127 93.8565L69.5132 93.8547Z" fill="#152428"/>
<path d="M62.7077 118.081C61.6942 118.081 60.8652 118.91 60.8652 119.923V136.708C60.8652 137.722 61.6942 148.376 62.7077 148.376C63.7212 148.376 64.5502 137.721 64.5502 136.708V119.924C64.5502 118.909 63.7212 118.08 62.7077 118.08V118.081Z" fill="url(#paint1_linear_121_502)"/>
<path d="M62.7077 118.081C61.6942 118.081 60.8652 118.91 60.8652 119.923V136.708C60.8652 137.722 61.6942 148.376 62.7077 148.376C63.7212 148.376 64.5502 137.721 64.5502 136.708V119.924C64.5502 118.909 63.7212 118.08 62.7077 118.08V118.081Z" fill="#152428"/>
<path d="M7.37764 118.081C6.36417 118.081 5.53516 118.91 5.53516 119.923V136.708C5.53516 137.722 6.36417 148.376 7.37764 148.376C8.39111 148.376 9.22013 137.721 9.22013 136.708V119.924C9.22013 118.909 8.39111 118.08 7.37764 118.08V118.081Z" fill="url(#paint2_linear_121_502)"/>
<path d="M7.37764 118.081C6.36417 118.081 5.53516 118.91 5.53516 119.923V136.708C5.53516 137.722 6.36417 148.376 7.37764 148.376C8.39111 148.376 9.22013 137.721 9.22013 136.708V119.924C9.22013 118.909 8.39111 118.08 7.37764 118.08V118.081Z" fill="#152428"/>
<defs>
<linearGradient id="paint0_linear_121_502" x1="34.9976" y1="0" x2="34.9976" y2="137.564" gradientUnits="userSpaceOnUse">
<stop stop-color="#1169FF"/>
<stop offset="1" stop-color="#11C6FF"/>
</linearGradient>
<linearGradient id="paint1_linear_121_502" x1="62.7077" y1="118.08" x2="62.7077" y2="148.376" gradientUnits="userSpaceOnUse">
<stop stop-color="#1169FF"/>
<stop offset="1" stop-color="#11C6FF"/>
</linearGradient>
<linearGradient id="paint2_linear_121_502" x1="7.37764" y1="118.08" x2="7.37764" y2="148.376" gradientUnits="userSpaceOnUse">
<stop stop-color="#1169FF"/>
<stop offset="1" stop-color="#11C6FF"/>
</linearGradient>
</defs>
</svg>
