<svg width="33" height="24" viewBox="0 0 33 24" fill="none" xmlns="http://www.w3.org/2000/svg">
<path d="M32.1965 0.801986C31.6828 0.288454 30.9862 0 30.2599 0C29.5336 0 28.8368 0.288472 28.3231 0.801986L12.0004 17.1247L5.09359 10.2179C4.39934 9.53785 3.39668 9.27635 2.45883 9.53113C1.52074 9.78593 0.788144 10.5185 0.533361 11.4564C0.278567 12.3945 0.539865 13.3972 1.21994 14.0914L9.0739 21.9453C9.8508 22.7204 10.9035 23.1554 12.0007 23.1554C13.0979 23.1554 14.1505 22.7204 14.9274 21.9453L32.1968 4.6754C32.7103 4.16163 32.9987 3.46487 32.9987 2.73857C32.9987 2.01204 32.7103 1.31548 32.1968 0.801748L32.1965 0.801986ZM2.57037 12.7408C2.25125 12.4163 2.25334 11.8951 2.57502 11.5732C2.89671 11.2515 3.41791 11.2492 3.74238 11.5683L11.3246 19.1506C11.4254 19.2511 11.5474 19.3276 11.6816 19.3745V21.2223C11.2052 21.1557 10.7639 20.9355 10.4243 20.595L2.57037 12.7408Z" fill="#1169FF"/>
</svg>
