<svg width="65" height="65" viewBox="0 0 65 65" fill="none" xmlns="http://www.w3.org/2000/svg">
<circle r="24.5" transform="matrix(0.350191 -0.936678 -0.936678 -0.350191 32.1718 32.1715)" fill="white" stroke="#33F88E"/>
<path d="M30.7417 22.5201L23.548 29.7621C23.2038 30.0914 23.0062 30.5466 23.0001 31.0246C22.994 31.5024 23.1797 31.9626 23.5154 32.3007C23.8509 32.6387 24.3079 32.8262 24.7825 32.8204C25.2572 32.8146 25.7096 32.6161 26.0369 32.2699L30.2829 27.9892L30.2829 42.2268C30.2829 42.8603 30.6187 43.4457 31.1636 43.7625C31.7086 44.0792 32.3799 44.0792 32.9248 43.7625C33.4698 43.4457 33.8056 42.8603 33.8056 42.2268L33.8056 28.0288L38.0254 32.2699C38.4739 32.6992 39.1132 32.8598 39.7095 32.6933C40.3058 32.5268 40.7714 32.0575 40.9363 31.4571C41.1011 30.8568 40.9409 30.2132 40.5143 29.7621L33.3205 22.5201C32.991 22.1863 32.5424 21.9994 32.075 22.0009C32.0604 21.9997 32.0458 21.9997 32.0313 22.0009C32.0168 21.9998 32.0022 21.9998 31.9875 22.0009C31.5205 22.0011 31.0722 22.1879 30.7417 22.5201Z" fill="#5F94ED"/>
</svg>
